HIERARCHY
ROOT joint_Root
{
	OFFSET 0.0 0.0 0.0
	CHANNELS 6 Xposition Yposition Zposition Zrotation Xrotation Yrotation 
	JOINT Hips
	{
		OFFSET 4.5925 91.4895 -427.239
		CHANNELS 6 Xposition Yposition Zposition Zrotation Xrotation Yrotation 
		JOINT Spine
		{
			OFFSET 15.7357 0.0 0.0
			CHANNELS 6 Xposition Yposition Zposition Zrotation Xrotation Yrotation 
			JOINT Chest
			{
				OFFSET 8.98455 -0.406207 0.0
				CHANNELS 6 Xposition Yposition Zposition Zrotation Xrotation Yrotation 
				JOINT Neck
				{
					OFFSET 16.3773 0.0 0.0
					CHANNELS 6 Xposition Yposition Zposition Zrotation Xrotation Yrotation 
					JOINT Head
					{
						OFFSET 6.45672 0.0 0.0
						CHANNELS 6 Xposition Yposition Zposition Zrotation Xrotation Yrotation 
						End Site
						{
							OFFSET 0.0 0.0 0.0
						}
					}
				}
				JOINT Shoulder_L
				{
					OFFSET 12.9942 -0.242716 4.98039
					CHANNELS 6 Xposition Yposition Zposition Zrotation Xrotation Yrotation 
					JOINT UpperArm_L
					{
						OFFSET 5.34809 0.0 0.0
						CHANNELS 6 Xposition Yposition Zposition Zrotation Xrotation Yrotation 
						JOINT LowerArm_L
						{
							OFFSET 24.3286 1.87007e-05 0.0
							CHANNELS 6 Xposition Yposition Zposition Zrotation Xrotation Yrotation 
							JOINT Hand_L
							{
								OFFSET 22.2916 0.0 0.0
								CHANNELS 6 Xposition Yposition Zposition Zrotation Xrotation Yrotation 
								End Site
								{
									OFFSET 0.0 0.0 0.0
								}
							}
						}
					}
				}
				JOINT Shoulder_R
				{
					OFFSET 12.9945 -0.242716 -4.98039
					CHANNELS 6 Xposition Yposition Zposition Zrotation Xrotation Yrotation 
					JOINT UpperArm_R
					{
						OFFSET -5.34813 0.0 0.0
						CHANNELS 6 Xposition Yposition Zposition Zrotation Xrotation Yrotation 
						JOINT LowerArm_R
						{
							OFFSET -24.3289 0.000322201 0.0
							CHANNELS 6 Xposition Yposition Zposition Zrotation Xrotation Yrotation 
							JOINT Hand_R
							{
								OFFSET -22.2915 -0.000108084 0.0
								CHANNELS 6 Xposition Yposition Zposition Zrotation Xrotation Yrotation 
								End Site
								{
									OFFSET 0.0 0.0 0.0
								}
							}
						}
					}
				}
			}
		}
		JOINT UpperLeg_L
		{
			OFFSET -2.19248 -6.46944 0.0
			CHANNELS 6 Xposition Yposition Zposition Zrotation Xrotation Yrotation 
			JOINT LowerLeg_L
			{
				OFFSET 39.0811 0.0 -1.23785e-05
				CHANNELS 6 Xposition Yposition Zposition Zrotation Xrotation Yrotation 
				JOINT Foot_L
				{
					OFFSET 40.9854 0.0 -1.26872e-05
					CHANNELS 6 Xposition Yposition Zposition Zrotation Xrotation Yrotation 
					JOINT Toes_L
					{
						OFFSET 11.7543 0.0 0.0
						CHANNELS 6 Xposition Yposition Zposition Zrotation Xrotation Yrotation 
						End Site
						{
							OFFSET 0.0 0.0 0.0
						}
					}
				}
			}
		}
		JOINT UpperLeg_R
		{
			OFFSET -2.19251 6.46944 0.0
			CHANNELS 6 Xposition Yposition Zposition Zrotation Xrotation Yrotation 
			JOINT LowerLeg_R
			{
				OFFSET -39.0811 -0.00228153 -0.0401928
				CHANNELS 6 Xposition Yposition Zposition Zrotation Xrotation Yrotation 
				JOINT Foot_R
				{
					OFFSET -40.9854 0.0 0.0
					CHANNELS 6 Xposition Yposition Zposition Zrotation Xrotation Yrotation 
					JOINT Toes_R
					{
						OFFSET -11.7543 0.0 0.0
						CHANNELS 6 Xposition Yposition Zposition Zrotation Xrotation Yrotation 
						End Site
						{
							OFFSET 0.0 0.0 0.0
						}
					}
				}
			}
		}
	}
}
MOTION
Frames:	7
Frame Time:	0.0333333
0.000000 0.000000 0.000000 0.000000 0.000000 -0.000000 1.847870 90.663200 1.461490 88.174700 -6.560190 13.693600 15.735700 0.000005 -0.000001 104.564000 82.559700 -107.466000 8.984550 -0.406207 -0.000000 6.749540 3.755630 -6.019890 16.377300 -0.000001 -0.000001 25.647900 -0.699163 3.158570 6.456720 -0.000001 -0.000000 13.113600 -2.137390 -15.868000 12.994200 -0.242716 4.980390 -91.595400 4.519210 -70.532700 5.348090 -0.000007 -0.000001 -61.587200 32.874300 -10.960900 24.328600 0.000019 0.000005 8.450510 24.860800 -19.462500 22.291600 -0.000001 0.000005 11.198400 5.222710 2.143360 12.994500 -0.242716 -4.980390 91.352800 -4.238400 -72.279700 -5.348130 -0.000001 -0.000004 -33.016300 -47.954500 -62.485700 -24.328900 0.000322 -0.000009 -0.986623 -1.417960 -34.805900 -22.291500 -0.000108 -0.000004 27.063500 5.469320 -5.345080 -2.192480 -6.469440 -0.000000 -174.383000 -11.768300 5.076280 39.081100 -0.000007 -0.000012 -0.093742 0.154915 31.179200 40.985400 -0.000006 -0.000013 1.234840 2.670150 -72.367400 11.754300 -0.000000 0.000003 -0.000098 -0.001010 -16.616300 -2.192510 6.469440 -0.000001 173.087000 15.483200 -173.985000 -39.081100 -0.002282 -0.040193 -0.082031 0.153402 29.086400 -40.985400 0.000008 0.000006 2.899100 13.675500 -70.972100 -11.754300 -0.000006 -0.000006 -0.004486 -0.056402 -18.867700
0.000000 0.000000 0.000000 0.000000 0.000000 -0.000000 1.911230 90.664100 1.401050 88.218300 -6.556920 13.700400 15.735700 0.000005 -0.000001 104.210000 82.477100 -107.203000 8.984550 -0.406207 -0.000000 6.934480 3.702680 -6.206350 16.377300 -0.000001 -0.000001 25.500700 -0.452915 2.583270 6.456720 -0.000001 -0.000000 13.097800 -1.694640 -16.067900 12.994200 -0.242716 4.980390 -91.637500 4.607650 -70.411700 5.348090 -0.000007 -0.000001 -61.264000 32.772700 -11.195800 24.328600 0.000019 0.000005 8.467770 24.746400 -19.577800 22.291600 -0.000001 0.000005 11.165000 5.223400 2.125680 12.994500 -0.242716 -4.980390 91.228500 -3.934420 -72.644000 -5.348130 -0.000001 -0.000004 -32.263800 -47.321400 -57.794300 -24.328900 0.000322 -0.000009 -0.753435 -1.204900 -31.982400 -22.291500 -0.000108 -0.000004 26.876800 5.456050 -4.856500 -2.192480 -6.469440 -0.000000 -174.485000 -11.790300 5.025320 39.081100 -0.000007 -0.000012 -0.089927 0.148571 31.185700 40.985400 -0.000006 -0.000013 1.277980 2.629580 -72.331100 11.754300 -0.000000 0.000003 -0.000093 -0.000969 -16.614800 -2.192510 6.469440 -0.000001 173.054000 15.411900 -174.082000 -39.081100 -0.002282 -0.040193 -0.078625 0.146912 29.147400 -40.985400 0.000008 0.000006 2.868950 13.602400 -70.935900 -11.754300 -0.000006 -0.000006 -0.004199 -0.053490 -18.749000
0.000000 0.000000 0.000000 0.000000 0.000000 -0.000000 1.960300 90.661800 1.335840 88.229500 -6.533390 13.705000 15.735700 0.000005 -0.000001 103.751000 82.386900 -106.801000 8.984550 -0.406207 -0.000000 7.138630 3.623170 -6.322190 16.377300 -0.000001 -0.000001 25.387100 -0.203314 1.932540 6.456720 -0.000001 -0.000000 12.952400 -1.312750 -16.132600 12.994200 -0.242716 4.980390 -91.687200 4.721400 -70.309500 5.348090 -0.000007 -0.000001 -61.008100 32.645700 -11.413000 24.328600 0.000019 0.000005 8.498940 24.705600 -19.673400 22.291600 -0.000001 0.000005 11.233200 5.223290 2.128330 12.994500 -0.242716 -4.980390 91.087700 -3.543590 -72.924100 -5.348130 -0.000001 -0.000004 -32.502900 -47.025200 -54.218100 -24.328900 0.000322 -0.000009 -0.551396 -1.005180 -28.702900 -22.291500 -0.000108 -0.000004 26.058900 5.443390 -4.403820 -2.192480 -6.469440 -0.000000 -174.538000 -11.803400 4.947360 39.081100 -0.000007 -0.000012 -0.086171 0.142095 31.234100 40.985400 -0.000006 -0.000013 1.323200 2.635170 -72.307600 11.754300 -0.000000 0.000003 -0.000097 -0.001004 -16.616100 -2.192510 6.469440 -0.000001 173.015000 15.416400 -174.143000 -39.081100 -0.002282 -0.040193 -0.079083 0.147509 29.184100 -40.985400 0.000008 0.000006 2.811210 13.620300 -70.893000 -11.754300 -0.000006 -0.000006 -0.004111 -0.052594 -18.712600
0.000000 0.000000 0.000000 0.000000 0.000000 -0.000000 2.004960 90.665200 1.284070 88.232800 -6.563630 13.733700 15.735700 0.000005 -0.000001 103.000000 82.300000 -106.076000 8.984550 -0.406207 -0.000000 7.350160 3.462590 -6.369850 16.377300 -0.000001 -0.000001 25.316900 0.092838 1.299410 6.456720 -0.000001 -0.000000 12.764300 -0.836150 -16.266900 12.994200 -0.242716 4.980390 -91.757800 4.850480 -70.052400 5.348090 -0.000007 -0.000001 -60.741300 32.718700 -11.711500 24.328600 0.000019 0.000005 8.435190 24.603200 -19.605500 22.291600 -0.000001 0.000005 11.122300 5.225260 2.077620 12.994500 -0.242716 -4.980390 90.944900 -3.133290 -73.208200 -5.348130 -0.000001 -0.000004 -34.249600 -47.319100 -52.219100 -24.328900 0.000322 -0.000009 -0.694263 -1.477940 -25.142800 -22.291500 -0.000108 -0.000004 24.972900 5.416330 -3.471810 -2.192480 -6.469440 -0.000000 -174.547000 -11.854800 4.932920 39.081100 -0.000007 -0.000012 -0.086885 0.143212 31.245100 40.985400 -0.000006 -0.000013 1.366480 2.681120 -72.277800 11.754300 -0.000000 0.000003 -0.000092 -0.000960 -16.614400 -2.192510 6.469440 -0.000001 173.002000 15.390100 -174.173000 -39.081100 -0.002282 -0.040193 -0.076701 0.143144 29.201300 -40.985400 0.000008 0.000006 2.839330 13.638400 -70.862800 -11.754300 -0.000006 -0.000006 -0.004341 -0.054945 -18.808300
0.000000 0.000000 0.000000 0.000000 0.000000 -0.000000 2.048060 90.664700 1.229440 88.219900 -6.705710 13.744900 15.735700 0.000005 -0.000001 102.331000 82.207400 -105.412000 8.984550 -0.406207 -0.000000 7.566190 3.320740 -6.376190 16.377300 -0.000001 -0.000001 25.361100 0.432592 0.799418 6.456720 -0.000001 -0.000000 12.471600 -0.312881 -16.473100 12.994200 -0.242716 4.980390 -91.813200 4.967920 -69.919600 5.348090 -0.000007 -0.000001 -60.570200 32.682300 -11.865700 24.328600 0.000019 0.000005 8.443100 24.561600 -19.651500 22.291600 -0.000001 0.000005 11.104900 5.225300 2.076660 12.994500 -0.242716 -4.980390 90.852700 -2.878310 -73.489700 -5.348130 -0.000001 -0.000004 -37.863800 -48.492300 -51.754600 -24.328900 0.000322 -0.000009 -1.195440 -2.984490 -21.830100 -22.291500 -0.000108 -0.000004 23.673200 5.372770 -2.068890 -2.192480 -6.469440 -0.000000 -174.536000 -11.993800 4.910030 39.081100 -0.000007 -0.000012 -0.083521 0.137495 31.276800 40.985400 -0.000006 -0.000013 1.391570 2.645820 -72.267700 11.754300 -0.000000 0.000003 -0.000091 -0.000952 -16.614100 -2.192510 6.469440 -0.000001 173.021000 15.273000 -174.238000 -39.081100 -0.002282 -0.040193 -0.079563 0.148192 29.213200 -40.985400 0.000008 0.000006 2.752770 13.692100 -70.790100 -11.754300 -0.000006 -0.000006 -0.004316 -0.054692 -18.798000
0.000000 0.000000 0.000000 0.000000 0.000000 -0.000000 2.096530 90.666400 1.168600 88.209600 -6.992890 13.742900 15.735700 0.000005 -0.000001 101.896000 82.109200 -104.960000 8.984550 -0.406207 -0.000000 7.780360 3.239500 -6.344050 16.377300 -0.000001 -0.000001 25.366600 0.756477 0.406325 6.456720 -0.000001 -0.000000 12.345700 0.191800 -16.663300 12.994200 -0.242716 4.980390 -91.850500 5.060050 -69.881600 5.348090 -0.000007 -0.000001 -60.445500 32.694000 -11.995000 24.328600 0.000019 0.000005 8.404310 24.411300 -19.671200 22.291600 -0.000001 0.000005 10.983000 5.227440 2.021520 12.994500 -0.242716 -4.980390 90.761100 -2.602560 -73.691600 -5.348130 -0.000001 -0.000004 -41.935800 -50.124500 -52.161100 -24.328900 0.000322 -0.000009 -1.794920 -5.179570 -19.136700 -22.291500 -0.000108 -0.000004 22.752700 5.316540 -0.396260 -2.192480 -6.469440 -0.000000 -174.528000 -12.150300 4.893890 39.081100 -0.000007 -0.000012 -0.083499 0.137382 31.290900 40.985400 -0.000006 -0.000013 1.393880 2.540110 -72.253000 11.754300 -0.000000 0.000003 -0.000091 -0.000950 -16.614100 -2.192510 6.469440 -0.000001 173.024000 15.154000 -174.335000 -39.081100 -0.002282 -0.040193 -0.086149 0.159950 29.216500 -40.985400 0.000008 0.000006 2.640990 13.887400 -70.684800 -11.754300 -0.000006 -0.000006 -0.004300 -0.054524 -18.791200
0.000000 0.000000 0.000000 0.000000 0.000000 -0.000000 2.154340 90.672200 1.116060 88.178900 -7.368840 13.720300 15.735700 0.000005 -0.000001 101.491000 82.037800 -104.505000 8.984550 -0.406207 -0.000000 7.938730 3.154370 -6.242120 16.377300 -0.000001 -0.000001 25.488100 1.066770 0.070528 6.456720 -0.000001 -0.000000 12.249000 0.664307 -16.741800 12.994200 -0.242716 4.980390 -91.870700 5.090610 -69.791700 5.348090 -0.000007 -0.000001 -60.402300 32.887500 -12.123000 24.328600 0.000019 0.000005 8.347500 24.357500 -19.584000 22.291600 -0.000001 0.000005 10.938600 5.228650 1.990430 12.994500 -0.242716 -4.980390 90.676600 -2.327650 -73.785600 -5.348130 -0.000001 -0.000004 -45.087100 -51.448600 -52.507500 -24.328900 0.000322 -0.000009 -2.251420 -7.217140 -17.370300 -22.291500 -0.000108 -0.000004 22.404400 5.270140 0.894527 -2.192480 -6.469440 -0.000000 -174.492000 -12.380000 4.892280 39.081100 -0.000007 -0.000012 -0.083207 0.136949 31.282200 40.985400 -0.000006 -0.000013 1.391130 2.400060 -72.241900 11.754300 -0.000000 0.000003 -0.000089 -0.000931 -16.613400 -2.192510 6.469440 -0.000001 173.046000 14.988200 -174.438000 -39.081100 -0.002282 -0.040193 -0.094278 0.174841 29.166700 -40.985400 0.000008 0.000006 2.450110 14.157300 -70.525100 -11.754300 -0.000006 -0.000006 -0.004370 -0.055236 -18.820200
